<svg xmlns:xlink="http://www.w3.org/1999/xlink" xmlns="http://www.w3.org/2000/svg" width="941px" height="556px" viewBox="0 0 941 556" style="overflow: hidden; display: block; width: 941px; height: 556px;"><defs><path fill="rgb(51,102,153)" stroke="rgb(51,102,153)" d="M 5,-5 L 0,0 L 5,5 Z" fill-opacity="1" stroke-opacity="1" stroke-width="1" stroke-linecap="butt" stroke-linejoin="miter" stroke-miterlimit="10" id="ygc226_0"/></defs><g style="pointer-events:visiblePainted" transform="translate(557 338)" image-rendering="auto" shape-rendering="auto"><g><path fill="none" stroke="rgb(51,102,153)" d="M -74.5,-238.208722741433 L -176.28635277565647,-207.13376145789928" stroke-opacity="1" stroke-width="1" stroke-linecap="butt" stroke-linejoin="miter" stroke-miterlimit="10"/><use xlink:href="#ygc226_0" transform="matrix(0.717316 -0.218994 0.218994 0.717316 -179.366 -206.194)" style="pointer-events: none;"/></g><g><path fill="none" stroke="rgb(51,102,153)" d="M -74.5,-256.3874391092554 L -255.10181360339894,-260.9433303709974" stroke-opacity="1" stroke-width="1" stroke-linecap="butt" stroke-linejoin="miter" stroke-miterlimit="10"/><use xlink:href="#ygc226_0" transform="matrix(0.749762 0.0189136 -0.0189136 0.749762 -258.32 -261.025)" style="pointer-events: none;"/></g><g><path fill="none" stroke="rgb(51,102,153)" d="M -326.15547588005217,-50 L -247.35008574456356,-93.12019563682523" stroke-opacity="1" stroke-width="1" stroke-linecap="butt" stroke-linejoin="miter" stroke-miterlimit="10"/><use xlink:href="#ygc226_0" transform="matrix(-0.657946 0.36001 -0.36001 -0.657946 -244.526 -94.6657)" style="pointer-events: none;"/></g><g><path fill="none" stroke="rgb(51,102,153)" d="M -203.79732704733442,-120.3334540020626 L -81,-228.96428571428572 L -78.87417362377553,-229.86424357042256" stroke-opacity="1" stroke-width="1" stroke-linecap="butt" stroke-linejoin="miter" stroke-miterlimit="10"/><use xlink:href="#ygc226_0" transform="matrix(-0.690659 0.292387 -0.292387 -0.690659 -75.9092 -231.119)" style="pointer-events: none;"/></g><g><path fill="none" stroke="rgb(51,102,153)" d="M -320.5,-17.980629012950264 L -102.01785714285714,1.9583333333333326 L -100.18013252548593,2.6125223882601394" stroke-opacity="1" stroke-width="1" stroke-linecap="butt" stroke-linejoin="miter" stroke-miterlimit="10"/><use xlink:href="#ygc226_0" transform="matrix(-0.706567 -0.251522 0.251522 -0.706567 -97.1469 3.69228)" style="pointer-events: none;"/></g><g><path fill="none" stroke="rgb(51,102,153)" d="M -41.552410169793376,19.067635847631195 L 122.34773190048566,52.83903728291439" stroke-opacity="1" stroke-width="1" stroke-linecap="butt" stroke-linejoin="miter" stroke-miterlimit="10"/><use xlink:href="#ygc226_0" transform="matrix(-0.734569 -0.151357 0.151357 -0.734569 125.501 53.4888)" style="pointer-events: none;"/></g><g><path fill="none" stroke="rgb(51,102,153)" d="M 173.58805480450832,-50.20597259774584 L 172.08005197045918,22.253785997611768" stroke-opacity="1" stroke-width="1" stroke-linecap="butt" stroke-linejoin="miter" stroke-miterlimit="10"/><use xlink:href="#ygc226_0" transform="matrix(0.0156053 -0.749838 0.749838 0.0156053 172.013 25.4728)" style="pointer-events: none;"/></g><g><path fill="none" stroke="rgb(51,102,153)" d="M 213.4477101845523,81 L 251.1472280417473,113.36760247950485" stroke-opacity="1" stroke-width="1" stroke-linecap="butt" stroke-linejoin="miter" stroke-miterlimit="10"/><use xlink:href="#ygc226_0" transform="matrix(-0.569041 -0.488561 0.488561 -0.569041 253.59 115.465)" style="pointer-events: none;"/></g><g><path fill="none" stroke="rgb(51,102,153)" d="M 154.98368580060423,81 L 116.13464776537143,119.82557847120187" stroke-opacity="1" stroke-width="1" stroke-linecap="butt" stroke-linejoin="miter" stroke-miterlimit="10"/><use xlink:href="#ygc226_0" transform="matrix(0.53049 -0.53017 0.53017 0.53049 113.857 122.102)" style="pointer-events: none;"/></g><g><path fill="none" stroke="rgb(51,102,153)" d="M -35.7456338028169,-228 L -61.16194978324518,-185.75846360930692" stroke-opacity="1" stroke-width="1" stroke-linecap="butt" stroke-linejoin="miter" stroke-miterlimit="10"/><use xlink:href="#ygc226_0" transform="matrix(0.38667 -0.64264 0.64264 0.38667 -62.8219 -183)" style="pointer-events: none;"/></g><g><path fill="none" stroke="rgb(51,102,153)" d="M 4.828125,-228 L 44.48318066947761,-183.9897648061289" stroke-opacity="1" stroke-width="1" stroke-linecap="butt" stroke-linejoin="miter" stroke-miterlimit="10"/><use xlink:href="#ygc226_0" transform="matrix(-0.502044 -0.557182 0.557182 -0.502044 46.6384 -181.598)" style="pointer-events: none;"/></g><g><path fill="none" stroke="rgb(51,102,153)" d="M 35.5,-238.90887290167865 L 139.40369757102812,-208.51018919984307" stroke-opacity="1" stroke-width="1" stroke-linecap="butt" stroke-linejoin="miter" stroke-miterlimit="10"/><use xlink:href="#ygc226_0" transform="matrix(-0.719826 -0.210597 0.210597 -0.719826 142.494 -207.606)" style="pointer-events: none;"/></g><g><path fill="none" stroke="rgb(51,102,153)" d="M 35.5,-257.0637898686679 L 187.50149834550882,-262.7674108197189" stroke-opacity="1" stroke-width="1" stroke-linecap="butt" stroke-linejoin="miter" stroke-miterlimit="10"/><use xlink:href="#ygc226_0" transform="matrix(-0.749473 0.0281228 -0.0281228 -0.749473 190.719 -262.888)" style="pointer-events: none;"/></g><g><path fill="none" stroke="rgb(51,102,153)" d="M 28.875,-228 L 174,-147 L 174,-147 L 174,-116 L 174,-94.75" stroke-opacity="1" stroke-width="1" stroke-linecap="butt" stroke-linejoin="miter" stroke-miterlimit="10"/><use xlink:href="#ygc226_0" transform="matrix(0 -0.75 0.75 0 174 -91.5303)" style="pointer-events: none;"/></g><g><path fill="none" stroke="rgb(51,102,153)" d="M -354.38829787234044,4 L -321.94211418806935,45.49579954178885" stroke-opacity="1" stroke-width="1" stroke-linecap="butt" stroke-linejoin="miter" stroke-miterlimit="10"/><use xlink:href="#ygc226_0" transform="matrix(-0.461977 -0.590828 0.590828 -0.461977 -319.959 48.0322)" style="pointer-events: none;"/></g><g><path fill="none" stroke="rgb(51,102,153)" d="M -404.20411117544876,4 L -447.5650049561291,44.786635925509195" stroke-opacity="1" stroke-width="1" stroke-linecap="butt" stroke-linejoin="miter" stroke-miterlimit="10"/><use xlink:href="#ygc226_0" transform="matrix(0.546298 -0.513866 0.513866 0.546298 -449.91 46.9926)" style="pointer-events: none;"/></g><g><path d="M 189,-171 C 158.629,-171 134,-181.2994 134,-194 C 134,-206.7006 158.629,-217 189,-217 C 219.371,-217 244,-206.7006 244,-194 C 244,-181.2994 219.371,-171 189,-171 Z" stroke="rgb(0,0,0)" stroke-opacity="1" stroke-width="1" stroke-linecap="butt" stroke-linejoin="miter" stroke-miterlimit="10" fill="rgb(210,222,238)" fill-opacity="1"/></g><g><path d="M -74.5,-282 L 35.5,-282 L 35.5,-228 L -74.5,-228 Z" stroke="rgb(0,0,0)" stroke-opacity="1" stroke-width="1" stroke-linecap="butt" stroke-linejoin="miter" stroke-miterlimit="10" fill="rgb(210,222,238)" fill-opacity="1"/></g><g><path d="M 247,-242 C 216.629,-242 192,-252.2994 192,-265 C 192,-277.7006 216.629,-288 247,-288 C 277.371,-288 302,-277.7006 302,-265 C 302,-252.2994 277.371,-242 247,-242 Z" stroke="rgb(0,0,0)" stroke-opacity="1" stroke-width="1" stroke-linecap="butt" stroke-linejoin="miter" stroke-miterlimit="10" fill="rgb(210,222,238)" fill-opacity="1"/></g><g><path d="M -430.5,-50 L -320.5,-50 L -320.5,4 L -430.5,4 Z" stroke="rgb(0,0,0)" stroke-opacity="1" stroke-width="1" stroke-linecap="butt" stroke-linejoin="miter" stroke-miterlimit="10" fill="rgb(210,222,238)" fill-opacity="1"/></g><g><path d="M -71,-136 C -101.37100000000001,-136 -126,-146.2994 -126,-159 C -126,-171.7006 -101.37100000000001,-182 -71,-182 C -40.629,-182 -16,-171.7006 -16,-159 C -16,-146.2994 -40.629,-136 -71,-136 Z" stroke="rgb(0,0,0)" stroke-opacity="1" stroke-width="1" stroke-linecap="butt" stroke-linejoin="miter" stroke-miterlimit="10" fill="rgb(210,222,238)" fill-opacity="1"/></g><g><path d="M -228,-171 C -258.371,-171 -283,-181.2994 -283,-194 C -283,-206.7006 -258.371,-217 -228,-217 C -197.629,-217 -173,-206.7006 -173,-194 C -173,-181.2994 -197.629,-171 -228,-171 Z" stroke="rgb(0,0,0)" stroke-opacity="1" stroke-width="1" stroke-linecap="butt" stroke-linejoin="miter" stroke-miterlimit="10" fill="rgb(210,222,238)" fill-opacity="1"/></g><g><path d="M -314,-242 C -344.371,-242 -369,-252.2994 -369,-265 C -369,-277.7006 -344.371,-288 -314,-288 C -283.629,-288 -259,-277.7006 -259,-265 C -259,-252.2994 -283.629,-242 -314,-242 Z" stroke="rgb(0,0,0)" stroke-opacity="1" stroke-width="1" stroke-linecap="butt" stroke-linejoin="miter" stroke-miterlimit="10" fill="rgb(210,222,238)" fill-opacity="1"/></g><g><path d="M 67,-136 C 36.629,-136 12,-146.2994 12,-159 C 12,-171.7006 36.629,-182 67,-182 C 97.37100000000001,-182 122,-171.7006 122,-159 C 122,-146.2994 97.37100000000001,-136 67,-136 Z" stroke="rgb(0,0,0)" stroke-opacity="1" stroke-width="1" stroke-linecap="butt" stroke-linejoin="miter" stroke-miterlimit="10" fill="rgb(210,222,238)" fill-opacity="1"/></g><g><path d="M -302,94 C -332.371,94 -357,83.70060000000001 -357,71 C -357,58.2994 -332.371,48 -302,48 C -271.629,48 -247,58.2994 -247,71 C -247,83.70060000000001 -271.629,94 -302,94 Z" stroke="rgb(0,0,0)" stroke-opacity="1" stroke-width="1" stroke-linecap="butt" stroke-linejoin="miter" stroke-miterlimit="10" fill="rgb(210,222,238)" fill-opacity="1"/></g><g><path d="M -452,94 C -482.371,94 -507,83.70060000000001 -507,71 C -507,58.2994 -482.371,48 -452,48 C -421.629,48 -397,58.2994 -397,71 C -397,83.70060000000001 -421.629,94 -452,94 Z" stroke="rgb(0,0,0)" stroke-opacity="1" stroke-width="1" stroke-linecap="butt" stroke-linejoin="miter" stroke-miterlimit="10" fill="rgb(210,222,238)" fill-opacity="1"/></g><g><path d="M 279,160 C 248.629,160 224,149.7006 224,137 C 224,124.29939999999999 248.629,114 279,114 C 309.371,114 334,124.29939999999999 334,137 C 334,149.7006 309.371,160 279,160 Z" stroke="rgb(0,0,0)" stroke-opacity="1" stroke-width="1" stroke-linecap="butt" stroke-linejoin="miter" stroke-miterlimit="10" fill="rgb(210,222,238)" fill-opacity="1"/></g><g><path d="M 96,168 C 65.62899999999999,168 41,157.7006 41,145 C 41,132.2994 65.62899999999999,122 96,122 C 126.37100000000001,122 151,132.2994 151,145 C 151,157.7006 126.37100000000001,168 96,168 Z" stroke="rgb(0,0,0)" stroke-opacity="1" stroke-width="1" stroke-linecap="butt" stroke-linejoin="miter" stroke-miterlimit="10" fill="rgb(210,222,238)" fill-opacity="1"/></g><g><path d="M -71,-10 L -31,13 L -71,36 L -111,13 Z" stroke="rgb(0,0,0)" stroke-opacity="1" stroke-width="1" stroke-linecap="butt" stroke-linejoin="miter" stroke-miterlimit="10" fill="rgb(210,222,238)" fill-opacity="1"/></g><g><path d="M -220,-129 L -177,-106 L -220,-83 L -263,-106 Z" stroke="rgb(0,0,0)" stroke-opacity="1" stroke-width="1" stroke-linecap="butt" stroke-linejoin="miter" stroke-miterlimit="10" fill="rgb(210,222,238)" fill-opacity="1"/></g><g><path d="M 127,27 L 237,27 L 237,81 L 127,81 Z" stroke="rgb(0,0,0)" stroke-opacity="1" stroke-width="1" stroke-linecap="butt" stroke-linejoin="miter" stroke-miterlimit="10" fill="rgb(210,222,238)" fill-opacity="1"/></g><g><path d="M 130.5,31 L 233.5,31 L 233.5,77 L 130.5,77 Z" stroke="rgb(0,0,0)" stroke-opacity="1" stroke-width="1" stroke-linecap="butt" stroke-linejoin="miter" stroke-miterlimit="10" fill="rgb(210,222,238)" fill-opacity="1"/></g><g><path d="M 174,-90 L 214,-70 L 174,-50 L 134,-70 Z" stroke="rgb(0,0,0)" stroke-opacity="1" stroke-width="1" stroke-linecap="butt" stroke-linejoin="miter" stroke-miterlimit="10" fill="rgb(210,222,238)" fill-opacity="1"/></g><g transform="matrix(0.8772609988232026 -0.4800136872462252 0.4800136872462252 0.8772609988232026 -294.8584390684354 -61.42534097978859)"><text font-family="Arial" font-size="14px" font-style="normal" font-weight="normal" text-anchor="start" fill="rgb(0,0,0)" fill-opacity="1" dy="0.9285714285714286em" transform="translate(0 0)">m</text></g><g transform="matrix(0.7489892160621595 -0.6625821867682467 0.6625821867682467 0.7489892160621595 -115.27273846834231 -191.9697530739241)"><text font-family="Arial" font-size="14px" font-style="normal" font-weight="normal" text-anchor="start" fill="rgb(0,0,0)" fill-opacity="1" dy="0.9285714285714286em" transform="translate(0 0)">1</text></g><g transform="matrix(0.9958615214162556 0.09088360777665411 -0.09088360777665411 0.9958615214162556 -210.9976879125517 -2.9665282962876347)"><text font-family="Arial" font-size="14px" font-style="normal" font-weight="normal" text-anchor="start" fill="rgb(0,0,0)" fill-opacity="1" dy="0.9285714285714286em" transform="translate(0 0)">m</text></g><g transform="matrix(0.9794248630556441 0.20180916140857624 -0.20180916140857624 0.9794248630556441 45.69677383904603 42.15024842076329)"><text font-family="Arial" font-size="14px" font-style="normal" font-weight="normal" text-anchor="start" fill="rgb(0,0,0)" fill-opacity="1" dy="0.9285714285714286em" transform="translate(0 0)">n</text></g><g transform="matrix(0.020807085125464145 -0.9997835091701511 0.9997835091701511 0.020807085125464145 151.69821054325578 -7.667322644323108)"><text font-family="Arial" font-size="14px" font-style="normal" font-weight="normal" text-anchor="start" fill="rgb(0,0,0)" fill-opacity="1" dy="0.9285714285714286em" transform="translate(0 0)">n</text></g><g transform="matrix(0.8731977020149123 0.48736615926413734 -0.48736615926413734 0.8731977020149123 141.1496669611345 -165.33392438706406)"><text font-family="Arial" font-size="14px" font-style="normal" font-weight="normal" text-anchor="start" fill="rgb(0,0,0)" fill-opacity="1" dy="0.9285714285714286em" transform="translate(0 0)">m</text></g><g transform="translate(134 -217)"><text font-family="Arial" font-size="12px" font-style="normal" font-weight="normal" text-anchor="middle" fill="rgb(0,0,0)" fill-opacity="1" transform="translate(55 15.5)"><tspan dy="1em" x="0">songTitle</tspan></text></g><g transform="translate(-74.5 -282)"><text font-family="Arial" font-size="12px" font-style="normal" font-weight="normal" text-anchor="middle" fill="rgb(0,0,0)" fill-opacity="1" transform="translate(55 19.5)"><tspan dy="1em" x="0">Song</tspan></text></g><g transform="translate(192 -288)"><text font-family="Arial" font-size="12px" font-style="normal" font-weight="normal" text-anchor="middle" fill="rgb(0,0,0)" fill-opacity="1" transform="translate(55 15.5)"><tspan dy="1em" x="0">songTuning</tspan></text></g><g transform="translate(-430.5 -50)"><text font-family="Arial" font-size="12px" font-style="normal" font-weight="normal" text-anchor="middle" fill="rgb(0,0,0)" fill-opacity="1" transform="translate(55 19.5)"><tspan dy="1em" x="0">Tab</tspan></text></g><g transform="translate(-126 -182)"><text font-family="Arial" font-size="12px" font-style="normal" font-weight="normal" text-anchor="middle" fill="rgb(0,0,0)" fill-opacity="1" transform="translate(55 15.5)"><tspan dy="1em" x="0">songDifficulty</tspan></text></g><g transform="translate(-283 -217)"><text font-family="Arial" font-size="12px" font-style="normal" font-weight="normal" text-anchor="middle" fill="rgb(0,0,0)" fill-opacity="1" transform="translate(55 15.5)"><tspan dy="1em" x="0">songAuthor</tspan></text></g><g transform="translate(-369 -288)"><text font-family="Arial" font-size="12px" font-style="normal" font-weight="normal" text-decoration="underline" text-anchor="middle" fill="rgb(0,0,0)" fill-opacity="1" transform="translate(55 15.5)"><tspan dy="1em" x="0">songId</tspan></text></g><g transform="translate(12 -182)"><text font-family="Arial" font-size="12px" font-style="normal" font-weight="normal" text-anchor="middle" fill="rgb(0,0,0)" fill-opacity="1" transform="translate(55 15.5)"><tspan dy="1em" x="0">songKey</tspan></text></g><g transform="translate(-357 48)"><text font-family="Arial" font-size="12px" font-style="normal" font-weight="normal" text-anchor="middle" fill="rgb(0,0,0)" fill-opacity="1" transform="translate(55 15.5)"><tspan dy="1em" x="0">tabImageUrl</tspan></text></g><g transform="translate(-507 48)"><text font-family="Arial" font-size="12px" font-style="normal" font-weight="normal" text-decoration="underline" text-anchor="middle" fill="rgb(0,0,0)" fill-opacity="1" transform="translate(55 15.5)"><tspan dy="1em" x="0">tabId</tspan></text></g><g transform="translate(224 114)"><text font-family="Arial" font-size="12px" font-style="normal" font-weight="normal" text-decoration="underline" text-anchor="middle" fill="rgb(0,0,0)" fill-opacity="1" transform="translate(55 15.5)"><tspan dy="1em" x="0">SongTabTabId</tspan></text></g><g transform="translate(41 122)"><text font-family="Arial" font-size="12px" font-style="normal" font-weight="normal" text-decoration="underline" text-anchor="middle" fill="rgb(0,0,0)" fill-opacity="1" transform="translate(55 15.5)"><tspan dy="1em" x="0">SongTabSongId</tspan></text></g><g transform="translate(-111 -10)"><text font-family="Arial" font-size="12px" font-style="normal" font-weight="normal" text-anchor="middle" fill="rgb(0,0,0)" fill-opacity="1" transform="translate(40 15.5)"><tspan dy="1em" x="0">has</tspan></text></g><g transform="translate(-263 -129)"><text font-family="Arial" font-size="12px" font-style="normal" font-weight="normal" text-anchor="middle" fill="rgb(0,0,0)" fill-opacity="1" transform="translate(43 15.5)"><tspan dy="1em" x="0">exist</tspan></text></g><g transform="translate(130.5 31)"><text font-family="Arial" font-size="12px" font-style="normal" font-weight="normal" text-anchor="middle" fill="rgb(0,0,0)" fill-opacity="1" transform="translate(51.5 15.5)"><tspan dy="1em" x="0">SongTab</tspan></text></g><g transform="translate(134 -90)"><text font-family="Arial" font-size="12px" font-style="normal" font-weight="normal" text-anchor="middle" fill="rgb(0,0,0)" fill-opacity="1" transform="translate(40 12.5)"><tspan dy="1em" x="0">has</tspan></text></g></g></svg>